HIERARCHY
ROOT Hips
{
  OFFSET 17.3259 41.07 -5.49132
  CHANNELS 6 Xposition Yposition Zposition Zrotation Xrotation Yrotation
  JOINT LeftHip
  {
    OFFSET 3.43 0 -8.88178e-016
    CHANNELS 3 Zrotation Xrotation Yrotation
    JOINT LeftKnee
    {
      OFFSET 3.55271e-014 -18.47 9.76996e-014
      CHANNELS 3 Zrotation Xrotation Yrotation
      JOINT LeftAnkle
      {
        OFFSET 1.28964e-012 -17.95 5.57776e-013
        CHANNELS 3 Zrotation Xrotation Yrotation
        End Site
        {
          OFFSET 0 -3.12 0
        }
      }
    }
  }
  JOINT RightHip
  {
    OFFSET -3.43 -7.10543e-015 2.22045e-015
    CHANNELS 3 Zrotation Xrotation Yrotation
    JOINT RightKnee
    {
      OFFSET -2.4869e-014 -18.47 -1.95399e-014
      CHANNELS 3 Zrotation Xrotation Yrotation
      JOINT RightAnkle
      {
        OFFSET -1.00542e-012 -17.95 -9.87654e-013
        CHANNELS 3 Zrotation Xrotation Yrotation
        End Site
        {
          OFFSET 0 -3.12 0
        }
      }
    }
  }
  JOINT Chest
  {
    OFFSET -1.77636e-014 4.57 4.44089e-016
    CHANNELS 3 Zrotation Xrotation Yrotation
    JOINT Chest2
    {
      OFFSET 0 6.57 6.66134e-016
      CHANNELS 3 Zrotation Xrotation Yrotation
      JOINT LeftCollar
      {
        OFFSET 1.06 4.19 1.76
        CHANNELS 3 Zrotation Xrotation Yrotation
        JOINT LeftShoulder
        {
          OFFSET 5.81 7.10543e-015 -9.32587e-015
          CHANNELS 3 Zrotation Xrotation Yrotation
          JOINT LeftElbow
          {
            OFFSET 9.23706e-014 -12.08 3.90799e-014
            CHANNELS 3 Zrotation Xrotation Yrotation
            JOINT LeftWrist
            {
              OFFSET -2.91323e-013 -9.82 3.16192e-013
              CHANNELS 3 Zrotation Xrotation Yrotation
              End Site
              {
                OFFSET 0 -7.37 0
              }
            }
          }
        }
      }
      JOINT RightCollar
      {
        OFFSET -1.06 4.19 1.76
        CHANNELS 3 Zrotation Xrotation Yrotation
        JOINT RightShoulder
        {
          OFFSET -6.06 1.42109e-014 -7.10543e-015
          CHANNELS 3 Zrotation Xrotation Yrotation
          JOINT RightElbow
          {
            OFFSET -1.63425e-013 -11.08 1.18128e-013
            CHANNELS 3 Zrotation Xrotation Yrotation
            JOINT RightWrist
            {
              OFFSET 1.20792e-013 -9.82 3.71259e-013
              CHANNELS 3 Zrotation Xrotation Yrotation
              End Site
              {
                OFFSET 0 -7.14001 0
              }
            }
          }
        }
      }
      JOINT Neck
      {
        OFFSET -3.55271e-015 4.05 -1.66533e-014
        CHANNELS 3 Zrotation Xrotation Yrotation
        JOINT Head
        {
          OFFSET 3.55271e-015 5.19 -4.44089e-014
          CHANNELS 3 Zrotation Xrotation Yrotation
          End Site
          {
            OFFSET 0 4.14001 0
          }
        }
      }
    }
  }
}
MOTION
Frames:	11
Frame Time:	0.0333333
17.3259 41.07 -5.49132 0.256662 -4.61727 -0.044438 1.45476 3.85158 4.16933 0.923289 7.14611 16.6579 8.33486 -5.94248 0.433379 -1.18632 6.78265 -4.67768 -0.773392 2.81317 -2.64306 4.10466 -0.667982 0.0239375 0.449886 -0.486496 0.889701 0.509722 -3.42094 0.174911 6.31769 -0.00118228 -0.102811 89.7991 15.2309 6.97121 -3.53575 -11.1483 -0.68447 7.8025 13.5906 -7.68082 -10.3977 0.486799 -4.26652 -87.7304 21.9227 -1.89759 1.99556 -16.0397 0.551587 -8.00167 9.00172 2.22644 -0.799457 15.1033 0.560709 0.228078 -3.05025 0.68236 
17.3277 41.0634 -5.48637 0.300884 -4.62475 -0.147421 1.44433 3.89373 4.18565 0.994485 7.10233 16.4628 8.18219 -5.64757 0.404267 -1.14171 6.7983 -4.5762 -0.825702 2.79535 -2.84165 3.98033 -0.702838 0.0244232 0.16204 -0.531637 0.771197 0.273057 -3.46432 -0.261141 8.0225 0.0110191 0.417667 88.5751 15.2313 7.10436 -3.52785 -11.1381 -0.682319 8.08017 13.7667 -7.53072 -9.02003 0.405441 -3.41392 -88.6779 22.2522 -1.60748 1.9911 -16.0515 0.550747 -8.27059 7.16796 2.49308 0.418375 15.211 0.302982 -1.06787 -3.16517 1.32189 
17.3348 41.0576 -5.47309 0.311167 -4.6093 -0.0661443 1.50808 3.84999 4.26788 0.974938 7.13097 16.4476 8.10226 -5.61009 0.397643 -1.11122 6.80327 -4.5369 -0.807228 2.7716 -3.06354 3.93256 -0.650674 0.0223389 0.146985 -0.565589 0.774785 0.348751 -3.53549 -0.261771 7.90823 0.0099849 0.393344 88.7426 15.3018 6.89244 -3.60746 -11.2472 -0.704501 7.60111 13.9844 -7.43001 -9.02243 0.407621 -3.47391 -88.783 22.1484 -1.81106 1.90168 -15.9613 0.523116 -7.99623 7.23697 2.92931 0.387451 15.1098 0.345644 -0.962419 -3.09934 1.32921 
17.3378 41.0603 -5.46758 0.260297 -4.61999 -0.0542593 1.53156 3.86945 4.26604 0.939447 7.13388 16.3908 8.18373 -5.72838 0.410138 -1.09109 6.82223 -4.55361 -0.812301 2.78696 -2.96826 4.00559 -0.553529 0.0193569 0.215309 -0.591697 0.728915 0.319666 -3.5751 -0.350341 8.17004 0.0151212 0.546461 88.4198 15.3188 7.10704 -3.48397 -11.2343 -0.679555 7.36194 14.6456 -7.55904 -8.8555 0.396976 -3.30835 -88.9209 22.11 -1.79457 1.91853 -15.7239 0.520105 -8.23062 7.13176 2.95817 0.403652 15.1155 0.452012 -0.772257 -2.91641 1.4437 
17.3324 41.0651 -5.45774 0.290868 -4.62671 0.0871939 1.54305 3.84281 4.27818 0.95962 7.18892 16.2034 8.14627 -5.71016 0.406953 -1.06176 6.86822 -4.53525 -0.814176 2.75436 -3.17839 3.99226 -0.499375 0.0174049 0.207414 -0.612649 0.727129 0.359408 -3.59508 -0.36477 8.07224 0.013087 0.488011 88.4304 15.2749 7.27341 -3.41626 -11.2251 -0.665784 8.27199 15.0426 -7.67477 -9.05652 0.407212 -3.43318 -88.8179 22.1116 -1.68338 1.98464 -15.7917 0.540302 -8.62039 7.20473 2.53535 0.395807 15.1619 0.398346 -0.910659 -3.03615 1.4144 
17.3405 41.0483 -5.4541 0.227635 -4.52635 0.136413 1.55893 3.80989 4.24971 0.950435 7.17505 16.2147 8.16608 -5.85966 0.418645 -1.0403 6.86206 -4.54163 -0.854656 2.71278 -3.08577 3.97544 -0.701641 0.0243516 0.21564 -0.592945 0.700355 0.285467 -3.47007 -0.466697 8.29588 0.0137708 0.47865 88.2428 15.4339 7.44901 -3.33381 -11.1092 -0.643056 8.43295 14.8409 -7.88557 -9.21712 0.419379 -3.63256 -89.1407 21.9505 -0.564095 2.50269 -15.8718 0.684853 -7.99707 7.59512 1.17267 0.167824 14.8187 1.09349 0.295848 -2.40063 1.76048 
17.3301 41.0541 -5.45526 0.253956 -4.47666 0.213973 1.61968 3.70173 4.30131 0.957657 7.22389 16.0309 8.06977 -5.63353 0.3977 -0.99714 6.77119 -4.4967 -0.826958 2.78224 -3.32866 3.91892 -0.663022 0.0226838 0.155875 -0.632387 0.683903 0.316308 -3.53526 -0.498732 8.21868 0.0148994 0.530305 88.3894 15.4209 7.15984 -3.49 -11.1607 -0.676332 8.59144 14.7325 -7.68488 -9.2545 0.422575 -3.68658 -89.147 21.8021 -0.601613 2.52674 -15.7141 0.684744 -7.03315 7.49456 1.40856 0.138776 14.8548 1.13971 0.317734 -2.39541 1.77896 
17.3308 41.0505 -5.45208 0.304907 -4.5022 0.238596 1.60596 3.72213 4.34521 0.939578 7.21396 16.1575 8.03158 -5.64227 0.396427 -0.992467 6.81343 -4.44933 -0.877872 2.76783 -3.39062 3.84243 -0.796059 0.0267035 0.11758 -0.631353 0.66987 0.323829 -3.52898 -0.584273 8.19062 0.0133197 0.478254 88.4032 15.5322 7.06822 -3.52297 -11.0955 -0.678799 8.56954 14.6454 -7.8198 -9.19816 0.420465 -3.67857 -89.3345 21.6703 -0.478397 2.64312 -15.545 0.708809 -4.67894 6.80371 0.884305 0.0203703 14.9077 1.22473 0.417709 -2.44981 1.82436 
17.3209 41.0395 -5.45943 0.26803 -4.51565 0.306617 1.625 3.72586 4.30503 0.991684 7.25247 15.9334 8.02162 -5.73791 0.402657 -0.961821 6.85244 -4.47913 -0.842541 2.74305 -3.41124 3.8656 -0.734551 0.0247888 0.176892 -0.613955 0.642831 0.361187 -3.49323 -0.56093 7.98068 0.0107622 0.413655 88.5137 15.6182 6.94844 -3.53097 -11.1995 -0.686639 8.0265 13.7332 -7.76951 -9.36085 0.426774 -3.70685 -89.2463 21.6155 -0.523147 2.6462 -15.5959 0.711901 -5.55839 6.91013 0.417694 -0.131553 14.9296 1.29391 0.501264 -2.53835 1.78726 
17.306 41.0479 -5.46355 0.286145 -4.50356 0.266683 1.58468 3.70354 4.26218 0.989893 7.26679 16.1244 8.09886 -5.76578 0.408525 -1.00374 6.83215 -4.51893 -0.844624 2.74015 -3.31729 3.87261 -0.834267 0.0282052 0.159848 -0.611822 0.655003 0.276935 -3.47113 -0.548846 8.05993 0.0112013 0.419378 88.4066 15.6885 7.00616 -3.47394 -11.2585 -0.679035 7.75927 13.1403 -7.85711 -9.26175 0.424055 -3.72005 -89.2963 21.5165 -0.567722 2.65645 -15.6065 0.715139 -4.97638 7.38044 0.287208 -0.0822339 14.9347 1.28841 0.547631 -2.62273 1.80181 
17.2947 41.0499 -5.47615 0.314873 -4.53663 0.250046 1.54734 3.78073 4.23199 1.00713 7.21938 16.1495 8.11859 -5.75378 0.408669 -0.995612 6.92402 -4.49948 -0.909557 2.66317 -3.23944 3.87264 -0.916656 0.030991 0.148224 -0.564305 0.718347 0.252248 -3.37623 -0.439243 7.98612 0.0107876 0.413875 88.4436 15.5191 6.93477 -3.57635 -11.1979 -0.695389 7.76969 13.0719 -7.47481 -9.35526 0.429157 -3.77419 -89.106 21.5599 -0.783894 2.56677 -15.5616 0.689025 -5.05133 7.20431 0.0869742 -0.0281227 14.9294 1.1732 0.306487 -2.87171 1.74795 
